<?xml version="1.0" encoding="UTF-8"?>
<svg xmlns="http://www.w3.org/2000/svg" xmlns:xlink="http://www.w3.org/1999/xlink" width="2000" zoomAndPan="magnify" viewBox="0 0 1500 1499.999933" height="2000" preserveAspectRatio="xMidYMid meet" version="1.0" style="background: transparent;"><defs><g/><clipPath id="e24de69de6"><path d="M 239 254 L 1183 254 L 1183 1198 L 239 1198 Z M 239 254 " clip-rule="nonzero"/></clipPath><clipPath id="ad63a24fd6"><path d="M 730.164062 59.242188 L 1239.203125 598.75 L 552.953125 1246.246094 L 43.910156 706.738281 Z M 730.164062 59.242188 " clip-rule="nonzero"/></clipPath><clipPath id="a40d02c156"><path d="M 730.164062 59.242188 L 1377.660156 745.492188 L 691.40625 1392.988281 L 43.910156 706.738281 Z M 730.164062 59.242188 " clip-rule="nonzero"/></clipPath><clipPath id="755a35a662"><rect x="0" width="535" y="0" height="820"/></clipPath><clipPath id="8d1cbeea2c"><path d="M 974.601562 846.273438 L 1027.355469 846.273438 L 1027.355469 899.027344 L 974.601562 899.027344 Z M 974.601562 846.273438 " clip-rule="nonzero"/></clipPath><clipPath id="b9fed7f582"><path d="M 1000.980469 846.273438 C 986.410156 846.273438 974.601562 858.082031 974.601562 872.652344 C 974.601562 887.21875 986.410156 899.027344 1000.980469 899.027344 C 1015.546875 899.027344 1027.355469 887.21875 1027.355469 872.652344 C 1027.355469 858.082031 1015.546875 846.273438 1000.980469 846.273438 Z M 1000.980469 846.273438 " clip-rule="nonzero"/></clipPath><clipPath id="9462836c27"><path d="M 0.601562 0.273438 L 53.355469 0.273438 L 53.355469 53.027344 L 0.601562 53.027344 Z M 0.601562 0.273438 " clip-rule="nonzero"/></clipPath><clipPath id="194269e752"><path d="M 26.980469 0.273438 C 12.410156 0.273438 0.601562 12.082031 0.601562 26.652344 C 0.601562 41.21875 12.410156 53.027344 26.980469 53.027344 C 41.546875 53.027344 53.355469 41.21875 53.355469 26.652344 C 53.355469 12.082031 41.546875 0.273438 26.980469 0.273438 Z M 26.980469 0.273438 " clip-rule="nonzero"/></clipPath><clipPath id="e9d40d4783"><rect x="0" width="54" y="0" height="54"/></clipPath></defs><g clip-path="url(#e24de69de6)"><g clip-path="url(#ad63a24fd6)"><g clip-path="url(#a40d02c156)"><path fill="#996c26" d="M 1053.945312 402.402344 C 875.300781 213.066406 576.339844 204.378906 387.003906 383.023438 C 197.667969 561.664062 188.980469 860.625 367.625 1049.960938 C 546.265625 1239.296875 845.230469 1247.984375 1034.5625 1069.34375 C 1223.898438 890.699219 1232.585938 591.738281 1053.945312 402.402344 Z M 1039.023438 416.480469 C 1210.246094 597.953125 1201.957031 883.199219 1020.484375 1054.421875 C 839.015625 1225.644531 553.765625 1217.355469 382.542969 1035.882812 C 211.320312 854.410156 219.609375 569.164062 401.082031 397.941406 C 582.554688 226.71875 867.800781 235.007812 1039.023438 416.480469 Z M 1039.023438 416.480469 " fill-opacity="1" fill-rule="nonzero"/></g></g></g><g transform="matrix(1, 0, 0, 1, 423, 271)"><g clip-path="url(#755a35a662)"><g fill="#996c26" fill-opacity="1"><g transform="translate(3.046871, 621.330434)"><g><path d="M 405.734375 11.296875 C 408.921875 11.972656 410.800781 13.335938 411.375 15.390625 C 411.945312 17.441406 411.09375 19.609375 408.8125 21.890625 C 400.144531 30.097656 390.164062 37.738281 378.875 44.8125 C 367.582031 51.882812 355.550781 57.585938 342.78125 61.921875 C 330.007812 66.253906 317.238281 68.421875 304.46875 68.421875 C 288.050781 68.421875 273.679688 64.882812 261.359375 57.8125 C 249.046875 50.738281 239.238281 40.875 231.9375 28.21875 C 224.644531 15.5625 220.425781 1.140625 219.28125 -15.046875 C 218.601562 -25.992188 218.320312 -37.679688 218.4375 -50.109375 C 218.550781 -62.546875 217.921875 -74.863281 216.546875 -87.0625 C 215.179688 -99.269531 212.046875 -110.734375 207.140625 -121.453125 C 202.234375 -132.171875 194.421875 -141.519531 183.703125 -149.5 C 173.898438 -157.019531 162.953125 -162.546875 150.859375 -166.078125 C 138.773438 -169.617188 126.347656 -171.957031 113.578125 -173.09375 C 100.804688 -174.238281 88.375 -174.925781 76.28125 -175.15625 C 76.28125 -174.925781 76.28125 -174.753906 76.28125 -174.640625 C 76.28125 -174.523438 76.28125 -174.46875 76.28125 -174.46875 C 76.28125 -145.957031 75.710938 -117.445312 74.578125 -88.9375 C 73.441406 -60.4375 71.273438 -31.929688 68.078125 -3.421875 C 67.847656 0.453125 65.738281 3.53125 61.75 5.8125 C 57.757812 8.09375 53.710938 9.234375 49.609375 9.234375 C 46.410156 9.234375 43.613281 8.378906 41.21875 6.671875 C 38.820312 4.960938 37.738281 2.28125 37.96875 -1.375 C 39.789062 -19.15625 41.382812 -39.617188 42.75 -62.765625 C 44.125 -85.921875 45.097656 -110.441406 45.671875 -136.328125 C 46.242188 -162.210938 46.414062 -188.097656 46.1875 -213.984375 C 45.957031 -239.867188 45.210938 -264.382812 43.953125 -287.53125 C 42.703125 -310.6875 40.820312 -331.15625 38.3125 -348.9375 C 37.632812 -353.726562 39.515625 -357.601562 43.953125 -360.5625 C 48.398438 -363.53125 52.789062 -365.015625 57.125 -365.015625 C 59.863281 -365.015625 62.316406 -364.390625 64.484375 -363.140625 C 66.648438 -361.890625 67.847656 -359.894531 68.078125 -357.15625 C 69.210938 -350.082031 70.007812 -343.125 70.46875 -336.28125 C 70.925781 -329.4375 71.269531 -322.597656 71.5 -315.765625 C 72.863281 -295.234375 73.945312 -274.757812 74.75 -254.34375 C 75.550781 -233.9375 76.0625 -213.472656 76.28125 -192.953125 C 89.96875 -195.679688 104.679688 -199.78125 120.421875 -205.25 C 136.160156 -210.726562 151.382812 -217.515625 166.09375 -225.609375 C 180.800781 -233.710938 193.910156 -243.289062 205.421875 -254.34375 C 216.941406 -265.40625 225.328125 -277.894531 230.578125 -291.8125 C 234.453125 -301.84375 236.503906 -312.101562 236.734375 -322.59375 C 236.960938 -333.09375 235.820312 -343.472656 233.3125 -353.734375 C 232.394531 -357.609375 234.273438 -360.914062 238.953125 -363.65625 C 243.628906 -366.394531 248.25 -367.765625 252.8125 -367.765625 C 255.320312 -367.765625 257.546875 -367.304688 259.484375 -366.390625 C 261.421875 -365.472656 262.617188 -363.988281 263.078125 -361.9375 C 266.265625 -349.164062 267.398438 -336.394531 266.484375 -323.625 C 265.578125 -310.851562 262.390625 -298.3125 256.921875 -286 C 251.210938 -273 243.398438 -261.363281 233.484375 -251.09375 C 223.566406 -240.832031 212.445312 -231.769531 200.125 -223.90625 C 187.8125 -216.039062 175.382812 -209.140625 162.84375 -203.203125 C 157.363281 -200.921875 151.941406 -198.523438 146.578125 -196.015625 C 141.222656 -193.515625 135.695312 -191.351562 130 -189.53125 C 144.59375 -187.925781 158.898438 -184.957031 172.921875 -180.625 C 186.953125 -176.289062 199.785156 -169.789062 211.421875 -161.125 C 221.910156 -153.144531 229.71875 -143.910156 234.84375 -133.421875 C 239.976562 -122.929688 243.457031 -111.8125 245.28125 -100.0625 C 247.113281 -88.320312 248.082031 -76.289062 248.1875 -63.96875 C 248.300781 -51.65625 248.472656 -39.679688 248.703125 -28.046875 C 249.160156 -14.367188 251.5 -1.769531 255.71875 9.75 C 259.9375 21.269531 267.75 31.25 279.15625 39.6875 C 284.625 43.5625 290.320312 46.410156 296.25 48.234375 C 302.1875 50.054688 308.117188 50.96875 314.046875 50.96875 C 327.046875 50.96875 339.757812 47.601562 352.1875 40.875 C 364.625 34.15625 375.398438 26.234375 384.515625 17.109375 C 386.347656 15.054688 388.859375 13.515625 392.046875 12.484375 C 395.242188 11.460938 398.320312 10.953125 401.28125 10.953125 C 403.332031 10.953125 404.816406 11.066406 405.734375 11.296875 Z M 405.734375 11.296875 "/></g></g></g><g fill="#996c26" fill-opacity="1"><g transform="translate(265.481937, 621.330434)"><g><path d="M 254.53125 -263.078125 C 254.300781 -260.335938 251.847656 -258 247.171875 -256.0625 C 242.492188 -254.125 237.988281 -253.15625 233.65625 -253.15625 C 230.914062 -253.15625 228.691406 -253.609375 226.984375 -254.515625 C 225.273438 -255.429688 224.535156 -256.914062 224.765625 -258.96875 C 225.898438 -268.550781 225.898438 -278.472656 224.765625 -288.734375 C 223.160156 -301.273438 218.820312 -312.617188 211.75 -322.765625 C 204.6875 -332.921875 195.679688 -341.019531 184.734375 -347.0625 C 173.785156 -353.101562 161.582031 -356.125 148.125 -356.125 C 132.625 -356.125 118.65625 -352.53125 106.21875 -345.34375 C 93.789062 -338.164062 84.5 -328.25 78.34375 -315.59375 C 72.1875 -302.9375 70.703125 -288.28125 73.890625 -271.625 C 75.710938 -262.957031 79.191406 -255.375 84.328125 -248.875 C 89.460938 -242.375 95.5625 -236.671875 102.625 -231.765625 C 109.695312 -226.867188 116.882812 -222.484375 124.1875 -218.609375 C 138.09375 -211.535156 152.171875 -204.691406 166.421875 -198.078125 C 180.679688 -191.460938 194.3125 -183.820312 207.3125 -175.15625 C 216.4375 -169.226562 224.929688 -162.097656 232.796875 -153.765625 C 240.671875 -145.441406 247.285156 -136.320312 252.640625 -126.40625 C 258.003906 -116.488281 261.140625 -105.828125 262.046875 -94.421875 C 263.421875 -79.140625 260.742188 -65.28125 254.015625 -52.84375 C 247.285156 -40.414062 238.101562 -29.867188 226.46875 -21.203125 C 214.84375 -12.535156 202.1875 -5.925781 188.5 -1.375 C 181.882812 0.90625 175.039062 2.503906 167.96875 3.421875 C 160.894531 4.335938 153.710938 4.796875 146.421875 4.796875 C 142.085938 4.796875 137.753906 4.625 133.421875 4.28125 C 129.085938 3.9375 124.753906 3.535156 120.421875 3.078125 C 98.984375 -0.109375 81.132812 -6.773438 66.875 -16.921875 C 52.625 -27.078125 42.929688 -40.535156 37.796875 -57.296875 C 32.671875 -74.066406 32.726562 -93.738281 37.96875 -116.3125 C 38.65625 -119.28125 41.394531 -121.617188 46.1875 -123.328125 C 50.976562 -125.035156 55.425781 -125.890625 59.53125 -125.890625 C 62.03125 -125.890625 64.132812 -125.488281 65.84375 -124.6875 C 67.5625 -123.894531 68.191406 -122.585938 67.734375 -120.765625 C 65.453125 -111.640625 64.082031 -102.285156 63.625 -92.703125 C 62.945312 -79.023438 65.34375 -66.710938 70.8125 -55.765625 C 76.289062 -44.816406 84.21875 -35.691406 94.59375 -28.390625 C 104.96875 -21.097656 117 -15.96875 130.6875 -13 C 137.75 -11.40625 145.390625 -10.609375 153.609375 -10.609375 C 167.972656 -10.609375 181.769531 -13.800781 195 -20.1875 C 208.226562 -26.570312 218.375 -36.945312 225.4375 -51.3125 C 230.914062 -62.71875 233.082031 -74.289062 231.9375 -86.03125 C 230.800781 -97.78125 227.269531 -109.015625 221.34375 -119.734375 C 215.414062 -130.453125 208.117188 -139.914062 199.453125 -148.125 C 188.046875 -158.84375 175.382812 -167.796875 161.46875 -174.984375 C 147.5625 -182.171875 133.535156 -189.070312 119.390625 -195.6875 C 111.410156 -199.5625 103.203125 -203.664062 94.765625 -208 C 86.328125 -212.332031 78.515625 -217.289062 71.328125 -222.875 C 64.140625 -228.46875 58.039062 -235.140625 53.03125 -242.890625 C 47.550781 -251.328125 44.296875 -260.789062 43.265625 -271.28125 C 42.242188 -281.78125 43.15625 -292.21875 46 -302.59375 C 48.851562 -312.96875 53.363281 -322.03125 59.53125 -329.78125 C 67.050781 -339.363281 76.285156 -347.234375 87.234375 -353.390625 C 98.179688 -359.546875 109.925781 -364.101562 122.46875 -367.0625 C 135.007812 -370.03125 147.097656 -371.515625 158.734375 -371.515625 C 178.804688 -371.515625 196.484375 -367.238281 211.765625 -358.6875 C 227.046875 -350.132812 238.617188 -337.757812 246.484375 -321.5625 C 254.347656 -305.375 257.03125 -285.878906 254.53125 -263.078125 Z M 254.53125 -263.078125 "/></g></g></g></g></g><g clip-path="url(#8d1cbeea2c)"><g clip-path="url(#b9fed7f582)"><g transform="matrix(1, 0, 0, 1, 974, 846)"><g clip-path="url(#e9d40d4783)"><g clip-path="url(#9462836c27)"><g clip-path="url(#194269e752)"><path fill="#996c26" d="M 0.601562 0.273438 L 53.355469 0.273438 L 53.355469 53.027344 L 0.601562 53.027344 Z M 0.601562 0.273438 " fill-opacity="1" fill-rule="nonzero"/></g></g></g></g></g></g></svg>